<svg width="194" height="55" viewBox="0 0 194 55" fill="none" xmlns="http://www.w3.org/2000/svg">
<path d="M9.50295 28.7693L7.51708 27.1549L23.4295 14.2164C24.6762 13.2035 24.865 11.3718 23.8513 10.1259C22.8385 8.87991 21.0075 8.69115 19.7608 9.704L1.07376 24.8983C0.394768 25.4503 0 26.2796 0 27.1549C0 28.0301 0.394768 28.8588 1.07376 29.4115L5.83426 33.2817C6.3734 33.72 7.02231 33.9336 7.66672 33.9336C8.51189 33.9336 9.3503 33.5666 9.92478 32.8598C10.9384 31.6139 10.7489 29.7822 9.50295 28.7693Z" fill="#2FF093"/>
<path d="M49.5744 24.8953L44.1974 20.5228C42.9506 19.5099 41.1197 19.6987 40.1061 20.9446C39.0932 22.1906 39.282 24.0223 40.5287 25.0359L43.1311 27.1518L27.2179 40.0896C25.972 41.1025 25.7832 42.9342 26.7961 44.1801C27.3713 44.887 28.209 45.2539 29.0542 45.2539C29.6986 45.2539 30.3482 45.0404 30.8866 44.602L49.5744 29.4084C50.2534 28.8557 50.6482 28.0271 50.6482 27.1518C50.6482 26.2766 50.2534 25.4472 49.5744 24.8953Z" fill="#2FF093"/>
<path d="M33.1048 9.23456C31.6288 8.60143 29.9189 9.28419 29.2857 10.7602L16.8066 39.8511C16.1735 41.3271 16.8563 43.037 18.3323 43.6701C18.706 43.8303 19.0948 43.9062 19.4775 43.9062C20.6054 43.9062 21.6784 43.246 22.1514 42.1445L34.6305 13.0536C35.2636 11.5776 34.5801 9.86769 33.1048 9.23456Z" fill="#2FF093"/>
<path d="M80.8965 34.9585L81.8293 34.5982L81.5823 33.9585H80.8965V34.9585ZM71.3604 34.9585L70.4164 34.6283L69.9511 35.9585H71.3604V34.9585ZM73.3818 29.1797V28.1797H72.6722L72.4379 28.8495L73.3818 29.1797ZM78.6553 29.1797V30.1797H80.1136L79.5881 28.8193L78.6553 29.1797ZM70.855 8.98682V7.98682H69.3967L69.9222 9.34716L70.855 8.98682ZM80.3252 8.98682L81.2541 8.61651L81.0031 7.98682H80.3252V8.98682ZM91.9487 38.1445V39.1445H93.4239L92.8776 37.7742L91.9487 38.1445ZM82.127 38.1445L81.1941 38.5048L81.4412 39.1445H82.127V38.1445ZM68.7676 38.1445V39.1445H69.4917L69.7177 38.4565L68.7676 38.1445ZM59.3853 38.1445L58.4487 37.7941L57.9435 39.1445H59.3853V38.1445ZM69.8003 10.3052L70.7376 9.95659L69.8031 7.44388L68.8637 9.95478L69.8003 10.3052ZM74.1069 21.8848L75.057 22.1968L75.1662 21.8642L75.0442 21.5362L74.1069 21.8848ZM80.8965 33.9585H71.3604V35.9585H80.8965V33.9585ZM72.3043 35.2887L74.3258 29.5099L72.4379 28.8495L70.4164 34.6283L72.3043 35.2887ZM73.3818 30.1797H78.6553V28.1797H73.3818V30.1797ZM79.5881 28.8193L71.7878 8.62648L69.9222 9.34716L77.7225 29.54L79.5881 28.8193ZM70.855 9.98682H80.3252V7.98682H70.855V9.98682ZM79.3963 9.35712L91.0198 38.5148L92.8776 37.7742L81.2541 8.61651L79.3963 9.35712ZM91.9487 37.1445H82.127V39.1445H91.9487V37.1445ZM83.0598 37.7843L81.8293 34.5982L79.9636 35.3188L81.1941 38.5048L83.0598 37.7843ZM68.7676 37.1445H59.3853V39.1445H68.7676V37.1445ZM60.3219 38.4949L70.7369 10.6556L68.8637 9.95478L58.4487 37.7941L60.3219 38.4949ZM68.863 10.6538L73.1697 22.2334L75.0442 21.5362L70.7376 9.95659L68.863 10.6538ZM73.1568 21.5728L67.8175 37.8325L69.7177 38.4565L75.057 22.1968L73.1568 21.5728ZM98.7893 8.98682V7.98682H97.0336L97.9291 9.49692L98.7893 8.98682ZM109.116 8.98682L109.973 8.47019L109.681 7.98682H109.116V8.98682ZM116.939 21.9507L116.082 22.4673L116.953 23.9104L117.802 22.4546L116.939 21.9507ZM123.091 11.4038H124.091V7.70489L122.227 10.8999L123.091 11.4038ZM123.091 26.0815L123.956 26.5839L124.091 26.351V26.0815H123.091ZM116.082 38.1445L115.222 38.6546L116.091 40.1198L116.946 38.6469L116.082 38.1445ZM124.519 38.1445H123.519V39.1445H124.519V38.1445ZM124.519 8.98682V7.98682H123.519V8.98682H124.519ZM134.231 8.98682H135.231V7.98682H134.231V8.98682ZM134.231 38.1445V39.1445H135.231V38.1445H134.231ZM98.7673 38.1445H97.7673V39.1445H98.7673V38.1445ZM98.7673 11.6895L99.6263 11.1775L97.7673 8.05814V11.6895H98.7673ZM107.842 26.9165H108.842V26.6411L108.701 26.4046L107.842 26.9165ZM107.842 38.1445V39.1445H108.842V38.1445H107.842ZM98.7893 9.98682H109.116V7.98682H98.7893V9.98682ZM108.26 9.50344L116.082 22.4673L117.795 21.4341L109.973 8.47019L108.26 9.50344ZM117.802 22.4546L123.955 11.9077L122.227 10.8999L116.075 21.4468L117.802 22.4546ZM122.091 11.4038V26.0815H124.091V11.4038H122.091ZM122.226 25.5791L115.217 37.6421L116.946 38.6469L123.956 26.5839L122.226 25.5791ZM116.942 37.6344L99.6494 8.47671L97.9291 9.49692L115.222 38.6546L116.942 37.6344ZM125.519 38.1445V8.98682H123.519V38.1445H125.519ZM124.519 9.98682H134.231V7.98682H124.519V9.98682ZM133.231 8.98682V38.1445H135.231V8.98682H133.231ZM134.231 37.1445H124.519V39.1445H134.231V37.1445ZM99.7673 38.1445V11.6895H97.7673V38.1445H99.7673ZM97.9083 12.2014L106.983 27.4284L108.701 26.4046L99.6263 11.1775L97.9083 12.2014ZM106.842 26.9165V38.1445H108.842V26.9165H106.842ZM107.842 37.1445H98.7673V39.1445H107.842V37.1445ZM142.983 31.9263V30.9263H141.983V31.9263H142.983ZM145.906 31.9263V32.9263H146.906V31.9263H145.906ZM145.906 15.1831H146.906V14.1831H145.906V15.1831ZM142.983 15.1831H141.983V16.1831H142.983V15.1831ZM142.983 8.98682V7.98682H141.983V8.98682H142.983ZM158.54 8.98682H159.54V7.98682H158.54V8.98682ZM158.54 15.1831V16.1831H159.54V15.1831H158.54ZM155.618 15.1831V14.1831H154.618V15.1831H155.618ZM155.618 31.9263H154.618V32.9263H155.618V31.9263ZM158.54 31.9263H159.54V30.9263H158.54V31.9263ZM158.54 38.1445V39.1445H159.54V38.1445H158.54ZM142.983 38.1445H141.983V39.1445H142.983V38.1445ZM142.983 32.9263H145.906V30.9263H142.983V32.9263ZM146.906 31.9263V15.1831H144.906V31.9263H146.906ZM145.906 14.1831H142.983V16.1831H145.906V14.1831ZM143.983 15.1831V8.98682H141.983V15.1831H143.983ZM142.983 9.98682H158.54V7.98682H142.983V9.98682ZM157.54 8.98682V15.1831H159.54V8.98682H157.54ZM158.54 14.1831H155.618V16.1831H158.54V14.1831ZM154.618 15.1831V31.9263H156.618V15.1831H154.618ZM155.618 32.9263H158.54V30.9263H155.618V32.9263ZM157.54 31.9263V38.1445H159.54V31.9263H157.54ZM158.54 37.1445H142.983V39.1445H158.54V37.1445ZM143.983 38.1445V31.9263H141.983V38.1445H143.983ZM173.466 16.853V15.853H172.466V16.853H173.466ZM183.574 16.853H184.574V15.853H183.574V16.853ZM183.574 38.1445V39.1445H184.574V38.1445H183.574ZM173.466 38.1445H172.466V39.1445H173.466V38.1445ZM165.864 8.98682V7.98682H164.864V8.98682H165.864ZM191.176 8.98682H192.176V7.98682H191.176V8.98682ZM191.176 15.3369V16.3369H192.176V15.3369H191.176ZM165.864 15.3369H164.864V16.3369H165.864V15.3369ZM173.466 17.853H183.574V15.853H173.466V17.853ZM182.574 16.853V38.1445H184.574V16.853H182.574ZM183.574 37.1445H173.466V39.1445H183.574V37.1445ZM174.466 38.1445V16.853H172.466V38.1445H174.466ZM165.864 9.98682H191.176V7.98682H165.864V9.98682ZM190.176 8.98682V15.3369H192.176V8.98682H190.176ZM191.176 14.3369H165.864V16.3369H191.176V14.3369ZM166.864 15.3369V8.98682H164.864V15.3369H166.864Z" fill="#2FF093"/>
<path d="M60.8714 52L58.8544 44.7273H60.0085L61.4254 50.3594H61.4929L62.9666 44.7273H64.1101L65.5838 50.3629H65.6513L67.0646 44.7273H68.2223L66.2017 52H65.0973L63.5668 46.5526H63.5099L61.9794 52H60.8714ZM70.9513 52.1101C70.4139 52.1101 69.9511 51.9953 69.5629 51.7656C69.177 51.5336 68.8787 51.2081 68.668 50.7891C68.4596 50.3677 68.3555 49.8741 68.3555 49.3082C68.3555 48.7495 68.4596 48.2571 68.668 47.831C68.8787 47.4048 69.1722 47.0722 69.5487 46.8331C69.9274 46.594 70.3701 46.4744 70.8768 46.4744C71.1845 46.4744 71.4828 46.5253 71.7717 46.6271C72.0605 46.7289 72.3197 46.8887 72.5494 47.1065C72.779 47.3243 72.9601 47.6072 73.0927 47.9553C73.2253 48.3009 73.2915 48.7211 73.2915 49.2159V49.5923H68.9556V48.7969H72.2511C72.2511 48.5175 72.1942 48.2701 72.0806 48.0547C71.967 47.8369 71.8072 47.6652 71.6012 47.5398C71.3976 47.4143 71.1585 47.3516 70.8839 47.3516C70.5856 47.3516 70.3252 47.425 70.1026 47.5717C69.8825 47.7161 69.712 47.9055 69.5913 48.1399C69.4729 48.3719 69.4137 48.6241 69.4137 48.8963V49.5178C69.4137 49.8823 69.4776 50.1925 69.6055 50.4482C69.7357 50.7038 69.9168 50.8991 70.1488 51.0341C70.3808 51.1667 70.6519 51.233 70.962 51.233C71.1632 51.233 71.3467 51.2045 71.5124 51.1477C71.6781 51.0885 71.8214 51.0009 71.9421 50.8849C72.0629 50.7689 72.1552 50.6257 72.2191 50.4553L73.2241 50.6364C73.1436 50.9323 72.9992 51.1915 72.7908 51.4141C72.5849 51.6342 72.3256 51.8059 72.0131 51.929C71.703 52.0497 71.3491 52.1101 70.9513 52.1101ZM74.5549 52V44.7273H75.6167V47.4297H75.6806C75.7421 47.3161 75.8309 47.1847 75.9469 47.0355C76.0629 46.8864 76.2239 46.7562 76.4299 46.6449C76.6358 46.5312 76.9081 46.4744 77.2466 46.4744C77.687 46.4744 78.08 46.5857 78.4256 46.8082C78.7712 47.0308 79.0423 47.3516 79.2388 47.7706C79.4377 48.1896 79.5371 48.6939 79.5371 49.2834C79.5371 49.8729 79.4389 50.3783 79.2424 50.7997C79.0459 51.2187 78.776 51.5419 78.4327 51.7692C78.0894 51.9941 77.6976 52.1065 77.2573 52.1065C76.9258 52.1065 76.6548 52.0509 76.4441 51.9396C76.2357 51.8284 76.0724 51.6982 75.954 51.549C75.8356 51.3999 75.7445 51.2673 75.6806 51.1513H75.5918V52H74.5549ZM75.5953 49.2727C75.5953 49.6562 75.651 49.9924 75.7623 50.2812C75.8735 50.5701 76.0345 50.7962 76.2452 50.9595C76.4559 51.1205 76.714 51.201 77.0194 51.201C77.3366 51.201 77.6017 51.117 77.8148 50.9489C78.0279 50.7784 78.1889 50.5476 78.2978 50.2564C78.409 49.9652 78.4647 49.6373 78.4647 49.2727C78.4647 48.9129 78.4102 48.5897 78.3013 48.3033C78.1948 48.0168 78.0338 47.7907 77.8184 47.625C77.6053 47.4593 77.339 47.3764 77.0194 47.3764C76.7116 47.3764 76.4512 47.4557 76.2381 47.6143C76.0274 47.773 75.8676 47.9943 75.7587 48.2784C75.6498 48.5625 75.5953 48.8939 75.5953 49.2727ZM84.0755 52H82.9107L85.5279 44.7273H86.7956L89.4128 52H88.248L86.1919 46.0483H86.1351L84.0755 52ZM84.2708 49.152H88.0492V50.0753H84.2708V49.152ZM90.3778 54.0455V46.5455H91.4148V47.4297H91.5036C91.5651 47.3161 91.6539 47.1847 91.7699 47.0355C91.8859 46.8864 92.0469 46.7562 92.2528 46.6449C92.4588 46.5312 92.7311 46.4744 93.0696 46.4744C93.5099 46.4744 93.9029 46.5857 94.2486 46.8082C94.5942 47.0308 94.8653 47.3516 95.0618 47.7706C95.2607 48.1896 95.3601 48.6939 95.3601 49.2834C95.3601 49.8729 95.2618 50.3783 95.0653 50.7997C94.8688 51.2187 94.599 51.5419 94.2557 51.7692C93.9124 51.9941 93.5206 52.1065 93.0803 52.1065C92.7488 52.1065 92.4777 52.0509 92.267 51.9396C92.0587 51.8284 91.8954 51.6982 91.777 51.549C91.6586 51.3999 91.5675 51.2673 91.5036 51.1513H91.4396V54.0455H90.3778ZM91.4183 49.2727C91.4183 49.6562 91.474 49.9924 91.5852 50.2812C91.6965 50.5701 91.8575 50.7962 92.0682 50.9595C92.2789 51.1205 92.5369 51.201 92.8423 51.201C93.1596 51.201 93.4247 51.117 93.6378 50.9489C93.8509 50.7784 94.0118 50.5476 94.1207 50.2564C94.232 49.9652 94.2876 49.6373 94.2876 49.2727C94.2876 48.9129 94.2332 48.5897 94.1243 48.3033C94.0178 48.0168 93.8568 47.7907 93.6413 47.625C93.4283 47.4593 93.1619 47.3764 92.8423 47.3764C92.5346 47.3764 92.2741 47.4557 92.0611 47.6143C91.8504 47.773 91.6906 47.9943 91.5817 48.2784C91.4728 48.5625 91.4183 48.8939 91.4183 49.2727ZM96.5497 54.0455V46.5455H97.5866V47.4297H97.6754C97.737 47.3161 97.8258 47.1847 97.9418 47.0355C98.0578 46.8864 98.2188 46.7562 98.4247 46.6449C98.6307 46.5312 98.9029 46.4744 99.2415 46.4744C99.6818 46.4744 100.075 46.5857 100.42 46.8082C100.766 47.0308 101.037 47.3516 101.234 47.7706C101.433 48.1896 101.532 48.6939 101.532 49.2834C101.532 49.8729 101.434 50.3783 101.237 50.7997C101.041 51.2187 100.771 51.5419 100.428 51.7692C100.084 51.9941 99.6925 52.1065 99.2521 52.1065C98.9207 52.1065 98.6496 52.0509 98.4389 51.9396C98.2306 51.8284 98.0672 51.6982 97.9489 51.549C97.8305 51.3999 97.7393 51.2673 97.6754 51.1513H97.6115V54.0455H96.5497ZM97.5902 49.2727C97.5902 49.6562 97.6458 49.9924 97.7571 50.2812C97.8684 50.5701 98.0294 50.7962 98.2401 50.9595C98.4508 51.1205 98.7088 51.201 99.0142 51.201C99.3314 51.201 99.5966 51.117 99.8097 50.9489C100.023 50.7784 100.184 50.5476 100.293 50.2564C100.404 49.9652 100.46 49.6373 100.46 49.2727C100.46 48.9129 100.405 48.5897 100.296 48.3033C100.19 48.0168 100.029 47.7907 99.8132 47.625C99.6001 47.4593 99.3338 47.3764 99.0142 47.3764C98.7064 47.3764 98.446 47.4557 98.233 47.6143C98.0223 47.773 97.8625 47.9943 97.7536 48.2784C97.6446 48.5625 97.5902 48.8939 97.5902 49.2727ZM103.783 44.7273V52H102.722V44.7273H103.783ZM105.212 52V46.5455H106.274V52H105.212ZM105.748 45.7038C105.563 45.7038 105.405 45.6423 105.272 45.5192C105.142 45.3937 105.077 45.2446 105.077 45.0717C105.077 44.8965 105.142 44.7474 105.272 44.6243C105.405 44.4988 105.563 44.4361 105.748 44.4361C105.933 44.4361 106.09 44.4988 106.22 44.6243C106.353 44.7474 106.419 44.8965 106.419 45.0717C106.419 45.2446 106.353 45.3937 106.22 45.5192C106.09 45.6423 105.933 45.7038 105.748 45.7038ZM110 52.1101C109.472 52.1101 109.017 51.9905 108.636 51.7514C108.257 51.5099 107.966 51.1773 107.762 50.7536C107.559 50.3298 107.457 49.8445 107.457 49.2976C107.457 48.7436 107.561 48.2547 107.77 47.831C107.978 47.4048 108.271 47.0722 108.65 46.8331C109.029 46.594 109.475 46.4744 109.989 46.4744C110.403 46.4744 110.773 46.5514 111.097 46.7053C111.421 46.8568 111.683 47.0698 111.882 47.3445C112.083 47.6191 112.203 47.9399 112.24 48.3068H111.207C111.15 48.0511 111.02 47.831 110.816 47.6463C110.615 47.4616 110.345 47.3693 110.007 47.3693C109.711 47.3693 109.452 47.4474 109.229 47.6037C109.009 47.7576 108.837 47.9777 108.714 48.2642C108.591 48.5483 108.529 48.8845 108.529 49.2727C108.529 49.6705 108.59 50.0137 108.711 50.3026C108.831 50.5914 109.002 50.8151 109.222 50.9737C109.444 51.1323 109.706 51.2116 110.007 51.2116C110.208 51.2116 110.39 51.175 110.554 51.1016C110.719 51.0258 110.858 50.9181 110.969 50.7784C111.083 50.6387 111.162 50.4706 111.207 50.2741H112.24C112.203 50.6269 112.088 50.9418 111.896 51.2188C111.704 51.4957 111.447 51.7135 111.125 51.8722C110.806 52.0308 110.431 52.1101 110 52.1101ZM114.963 52.1207C114.618 52.1207 114.305 52.0568 114.026 51.929C113.746 51.7988 113.525 51.6106 113.362 51.3643C113.201 51.1181 113.12 50.8163 113.12 50.4588C113.12 50.151 113.179 49.8977 113.298 49.6989C113.416 49.5 113.576 49.3426 113.777 49.2266C113.978 49.1106 114.203 49.023 114.452 48.9638C114.7 48.9046 114.954 48.8596 115.212 48.8288C115.539 48.791 115.804 48.7602 116.007 48.7365C116.211 48.7105 116.359 48.669 116.451 48.6122C116.544 48.5554 116.59 48.4631 116.59 48.3352V48.3104C116.59 48.0002 116.502 47.7599 116.327 47.5895C116.154 47.419 115.896 47.3338 115.553 47.3338C115.195 47.3338 114.914 47.4131 114.708 47.5717C114.504 47.728 114.363 47.902 114.285 48.0938L113.287 47.8665C113.405 47.535 113.578 47.2675 113.806 47.0639C114.035 46.858 114.299 46.7088 114.597 46.6165C114.896 46.5218 115.209 46.4744 115.539 46.4744C115.756 46.4744 115.987 46.5005 116.231 46.5526C116.477 46.6023 116.707 46.6946 116.92 46.8295C117.135 46.9645 117.312 47.1574 117.449 47.4084C117.586 47.657 117.655 47.9801 117.655 48.3778V52H116.618V51.2543H116.575C116.507 51.3916 116.404 51.5265 116.267 51.6591C116.129 51.7917 115.953 51.9018 115.737 51.9893C115.522 52.0769 115.264 52.1207 114.963 52.1207ZM115.194 51.2685C115.488 51.2685 115.739 51.2105 115.947 51.0945C116.158 50.9785 116.317 50.8269 116.426 50.6399C116.538 50.4505 116.593 50.2481 116.593 50.0327V49.3295C116.555 49.3674 116.482 49.4029 116.373 49.4361C116.267 49.4669 116.145 49.4941 116.007 49.5178C115.87 49.5391 115.736 49.5592 115.606 49.5781C115.476 49.5947 115.367 49.6089 115.279 49.6207C115.073 49.6468 114.885 49.6906 114.715 49.7521C114.547 49.8137 114.412 49.9025 114.31 50.0185C114.21 50.1321 114.161 50.2836 114.161 50.473C114.161 50.7358 114.258 50.9347 114.452 51.0696C114.646 51.2022 114.893 51.2685 115.194 51.2685ZM121.615 46.5455V47.3977H118.636V46.5455H121.615ZM119.435 45.2386H120.497V50.3984C120.497 50.6044 120.528 50.7595 120.589 50.8636C120.651 50.9654 120.73 51.0353 120.827 51.0732C120.926 51.1087 121.034 51.1264 121.15 51.1264C121.235 51.1264 121.31 51.1205 121.374 51.1087C121.438 51.0968 121.488 51.0874 121.523 51.0803L121.715 51.9574C121.653 51.9811 121.566 52.0047 121.452 52.0284C121.338 52.0545 121.196 52.0687 121.026 52.071C120.747 52.0758 120.486 52.026 120.245 51.9219C120.003 51.8177 119.808 51.6567 119.659 51.4389C119.51 51.2211 119.435 50.9477 119.435 50.6186V45.2386ZM122.79 52V46.5455H123.852V52H122.79ZM123.326 45.7038C123.142 45.7038 122.983 45.6423 122.85 45.5192C122.72 45.3937 122.655 45.2446 122.655 45.0717C122.655 44.8965 122.72 44.7474 122.85 44.6243C122.983 44.4988 123.142 44.4361 123.326 44.4361C123.511 44.4361 123.668 44.4988 123.798 44.6243C123.931 44.7474 123.997 44.8965 123.997 45.0717C123.997 45.2446 123.931 45.3937 123.798 45.5192C123.668 45.6423 123.511 45.7038 123.326 45.7038ZM127.578 52.1101C127.066 52.1101 126.62 51.9929 126.239 51.7585C125.858 51.5241 125.562 51.1963 125.351 50.7749C125.141 50.3535 125.035 49.861 125.035 49.2976C125.035 48.7318 125.141 48.237 125.351 47.8132C125.562 47.3894 125.858 47.0604 126.239 46.826C126.62 46.5916 127.066 46.4744 127.578 46.4744C128.089 46.4744 128.535 46.5916 128.917 46.826C129.298 47.0604 129.594 47.3894 129.804 47.8132C130.015 48.237 130.12 48.7318 130.12 49.2976C130.12 49.861 130.015 50.3535 129.804 50.7749C129.594 51.1963 129.298 51.5241 128.917 51.7585C128.535 51.9929 128.089 52.1101 127.578 52.1101ZM127.581 51.2188C127.913 51.2188 128.187 51.1312 128.405 50.956C128.623 50.7808 128.784 50.5476 128.888 50.2564C128.995 49.9652 129.048 49.6444 129.048 49.294C129.048 48.946 128.995 48.6264 128.888 48.3352C128.784 48.0417 128.623 47.8061 128.405 47.6286C128.187 47.451 127.913 47.3622 127.581 47.3622C127.248 47.3622 126.971 47.451 126.75 47.6286C126.533 47.8061 126.37 48.0417 126.264 48.3352C126.16 48.6264 126.108 48.946 126.108 49.294C126.108 49.6444 126.16 49.9652 126.264 50.2564C126.37 50.5476 126.533 50.7808 126.75 50.956C126.971 51.1312 127.248 51.2188 127.581 51.2188ZM132.367 48.7614V52H131.306V46.5455H132.325V47.4332H132.392C132.518 47.1444 132.714 46.9124 132.982 46.7372C133.252 46.562 133.591 46.4744 134.001 46.4744C134.373 46.4744 134.698 46.5526 134.977 46.7088C135.257 46.8627 135.473 47.0923 135.627 47.3977C135.781 47.7031 135.858 48.0807 135.858 48.5305V52H134.796V48.6584C134.796 48.263 134.693 47.9541 134.487 47.7315C134.281 47.5066 133.999 47.3942 133.639 47.3942C133.392 47.3942 133.173 47.4474 132.982 47.554C132.792 47.6605 132.642 47.8168 132.531 48.0227C132.422 48.2263 132.367 48.4725 132.367 48.7614ZM143.98 46.6378C143.943 46.3016 143.786 46.0412 143.512 45.8565C143.237 45.6695 142.891 45.576 142.475 45.576C142.176 45.576 141.918 45.6233 141.701 45.718C141.483 45.8104 141.314 45.9382 141.193 46.1016C141.074 46.2625 141.015 46.446 141.015 46.652C141.015 46.8248 141.056 46.974 141.136 47.0994C141.219 47.2249 141.327 47.3303 141.459 47.4155C141.594 47.4983 141.739 47.5682 141.892 47.625C142.046 47.6795 142.194 47.7244 142.336 47.7599L143.047 47.9446C143.279 48.0014 143.516 48.0784 143.76 48.1754C144.004 48.2725 144.23 48.4003 144.439 48.5589C144.647 48.7176 144.815 48.9141 144.943 49.1484C145.073 49.3828 145.138 49.6634 145.138 49.9901C145.138 50.402 145.032 50.7678 144.819 51.0874C144.608 51.407 144.301 51.6591 143.899 51.8438C143.499 52.0284 143.015 52.1207 142.446 52.1207C141.902 52.1207 141.431 52.0343 141.033 51.8615C140.635 51.6887 140.324 51.4437 140.099 51.1264C139.874 50.8068 139.75 50.428 139.726 49.9901H140.827C140.848 50.2528 140.934 50.4718 141.083 50.647C141.234 50.8198 141.427 50.9489 141.662 51.0341C141.898 51.117 142.158 51.1584 142.439 51.1584C142.749 51.1584 143.025 51.1098 143.267 51.0128C143.511 50.9134 143.702 50.776 143.842 50.6009C143.982 50.4233 144.051 50.2161 144.051 49.9794C144.051 49.764 143.99 49.5876 143.867 49.4503C143.746 49.313 143.582 49.1993 143.373 49.1094C143.167 49.0194 142.934 48.9401 142.674 48.8714L141.814 48.6371C141.232 48.4785 140.77 48.2453 140.429 47.9375C140.091 47.6297 139.922 47.2225 139.922 46.7159C139.922 46.2969 140.035 45.9311 140.262 45.6186C140.49 45.3061 140.797 45.0634 141.186 44.8906C141.574 44.7154 142.012 44.6278 142.5 44.6278C142.992 44.6278 143.426 44.7143 143.803 44.8871C144.182 45.0599 144.48 45.2978 144.698 45.6009C144.916 45.9015 145.029 46.2472 145.039 46.6378H143.98ZM146.364 54.0455V46.5455H147.401V47.4297H147.49C147.551 47.3161 147.64 47.1847 147.756 47.0355C147.872 46.8864 148.033 46.7562 148.239 46.6449C148.445 46.5312 148.717 46.4744 149.056 46.4744C149.496 46.4744 149.889 46.5857 150.235 46.8082C150.581 47.0308 150.852 47.3516 151.048 47.7706C151.247 48.1896 151.346 48.6939 151.346 49.2834C151.346 49.8729 151.248 50.3783 151.052 50.7997C150.855 51.2187 150.585 51.5419 150.242 51.7692C149.899 51.9941 149.507 52.1065 149.067 52.1065C148.735 52.1065 148.464 52.0509 148.253 51.9396C148.045 51.8284 147.882 51.6982 147.763 51.549C147.645 51.3999 147.554 51.2673 147.49 51.1513H147.426V54.0455H146.364ZM147.405 49.2727C147.405 49.6562 147.46 49.9924 147.572 50.2812C147.683 50.5701 147.844 50.7962 148.055 50.9595C148.265 51.1205 148.523 51.201 148.829 51.201C149.146 51.201 149.411 51.117 149.624 50.9489C149.837 50.7784 149.998 50.5476 150.107 50.2564C150.218 49.9652 150.274 49.6373 150.274 49.2727C150.274 48.9129 150.22 48.5897 150.111 48.3033C150.004 48.0168 149.843 47.7907 149.628 47.625C149.415 47.4593 149.148 47.3764 148.829 47.3764C148.521 47.3764 148.26 47.4557 148.047 47.6143C147.837 47.773 147.677 47.9943 147.568 48.2784C147.459 48.5625 147.405 48.8939 147.405 49.2727ZM154.887 52.1101C154.349 52.1101 153.887 51.9953 153.498 51.7656C153.113 51.5336 152.814 51.2081 152.604 50.7891C152.395 50.3677 152.291 49.8741 152.291 49.3082C152.291 48.7495 152.395 48.2571 152.604 47.831C152.814 47.4048 153.108 47.0722 153.484 46.8331C153.863 46.594 154.306 46.4744 154.812 46.4744C155.12 46.4744 155.418 46.5253 155.707 46.6271C155.996 46.7289 156.255 46.8887 156.485 47.1065C156.715 47.3243 156.896 47.6072 157.028 47.9553C157.161 48.3009 157.227 48.7211 157.227 49.2159V49.5923H152.891V48.7969H156.187C156.187 48.5175 156.13 48.2701 156.016 48.0547C155.903 47.8369 155.743 47.6652 155.537 47.5398C155.333 47.4143 155.094 47.3516 154.819 47.3516C154.521 47.3516 154.261 47.425 154.038 47.5717C153.818 47.7161 153.648 47.9055 153.527 48.1399C153.408 48.3719 153.349 48.6241 153.349 48.8963V49.5178C153.349 49.8823 153.413 50.1925 153.541 50.4482C153.671 50.7038 153.852 50.8991 154.084 51.0341C154.316 51.1667 154.587 51.233 154.898 51.233C155.099 51.233 155.282 51.2045 155.448 51.1477C155.614 51.0885 155.757 51.0009 155.878 50.8849C155.998 50.7689 156.091 50.6257 156.155 50.4553L157.16 50.6364C157.079 50.9323 156.935 51.1915 156.726 51.4141C156.52 51.6342 156.261 51.8059 155.949 51.929C155.639 52.0497 155.285 52.1101 154.887 52.1101ZM160.703 52.1101C160.175 52.1101 159.72 51.9905 159.339 51.7514C158.96 51.5099 158.669 51.1773 158.466 50.7536C158.262 50.3298 158.16 49.8445 158.16 49.2976C158.16 48.7436 158.264 48.2547 158.473 47.831C158.681 47.4048 158.975 47.0722 159.353 46.8331C159.732 46.594 160.178 46.4744 160.692 46.4744C161.106 46.4744 161.476 46.5514 161.8 46.7053C162.124 46.8568 162.386 47.0698 162.585 47.3445C162.786 47.6191 162.906 47.9399 162.944 48.3068H161.91C161.853 48.0511 161.723 47.831 161.52 47.6463C161.318 47.4616 161.048 47.3693 160.71 47.3693C160.414 47.3693 160.155 47.4474 159.932 47.6037C159.712 47.7576 159.54 47.9777 159.417 48.2642C159.294 48.5483 159.233 48.8845 159.233 49.2727C159.233 49.6705 159.293 50.0137 159.414 50.3026C159.534 50.5914 159.705 50.8151 159.925 50.9737C160.148 51.1323 160.409 51.2116 160.71 51.2116C160.911 51.2116 161.093 51.175 161.257 51.1016C161.422 51.0258 161.561 50.9181 161.672 50.7784C161.786 50.6387 161.865 50.4706 161.91 50.2741H162.944C162.906 50.6269 162.791 50.9418 162.599 51.2188C162.407 51.4957 162.15 51.7135 161.828 51.8722C161.509 52.0308 161.134 52.1101 160.703 52.1101ZM164.079 52V46.5455H165.141V52H164.079ZM164.615 45.7038C164.431 45.7038 164.272 45.6423 164.139 45.5192C164.009 45.3937 163.944 45.2446 163.944 45.0717C163.944 44.8965 164.009 44.7474 164.139 44.6243C164.272 44.4988 164.431 44.4361 164.615 44.4361C164.8 44.4361 164.957 44.4988 165.088 44.6243C165.22 44.7474 165.286 44.8965 165.286 45.0717C165.286 45.2446 165.22 45.3937 165.088 45.5192C164.957 45.6423 164.8 45.7038 164.615 45.7038ZM168.157 52.1207C167.811 52.1207 167.498 52.0568 167.219 51.929C166.94 51.7988 166.718 51.6106 166.555 51.3643C166.394 51.1181 166.314 50.8163 166.314 50.4588C166.314 50.151 166.373 49.8977 166.491 49.6989C166.609 49.5 166.769 49.3426 166.971 49.2266C167.172 49.1106 167.397 49.023 167.645 48.9638C167.894 48.9046 168.147 48.8596 168.405 48.8288C168.732 48.791 168.997 48.7602 169.201 48.7365C169.404 48.7105 169.552 48.669 169.645 48.6122C169.737 48.5554 169.783 48.4631 169.783 48.3352V48.3104C169.783 48.0002 169.695 47.7599 169.52 47.5895C169.347 47.419 169.089 47.3338 168.746 47.3338C168.389 47.3338 168.107 47.4131 167.901 47.5717C167.697 47.728 167.556 47.902 167.478 48.0938L166.48 47.8665C166.599 47.535 166.772 47.2675 166.999 47.0639C167.229 46.858 167.493 46.7088 167.791 46.6165C168.089 46.5218 168.403 46.4744 168.732 46.4744C168.95 46.4744 169.181 46.5005 169.424 46.5526C169.671 46.6023 169.9 46.6946 170.113 46.8295C170.329 46.9645 170.505 47.1574 170.642 47.4084C170.78 47.657 170.848 47.9801 170.848 48.3778V52H169.811V51.2543H169.769C169.7 51.3916 169.597 51.5265 169.46 51.6591C169.323 51.7917 169.146 51.9018 168.931 51.9893C168.715 52.0769 168.457 52.1207 168.157 52.1207ZM168.387 51.2685C168.681 51.2685 168.932 51.2105 169.14 51.0945C169.351 50.9785 169.511 50.8269 169.62 50.6399C169.731 50.4505 169.787 50.2481 169.787 50.0327V49.3295C169.749 49.3674 169.675 49.4029 169.566 49.4361C169.46 49.4669 169.338 49.4941 169.201 49.5178C169.063 49.5391 168.93 49.5592 168.799 49.5781C168.669 49.5947 168.56 49.6089 168.473 49.6207C168.267 49.6468 168.078 49.6906 167.908 49.7521C167.74 49.8137 167.605 49.9025 167.503 50.0185C167.404 50.1321 167.354 50.2836 167.354 50.473C167.354 50.7358 167.451 50.9347 167.645 51.0696C167.839 51.2022 168.087 51.2685 168.387 51.2685ZM173.324 44.7273V52H172.263V44.7273H173.324ZM174.753 52V46.5455H175.815V52H174.753ZM175.289 45.7038C175.104 45.7038 174.946 45.6423 174.813 45.5192C174.683 45.3937 174.618 45.2446 174.618 45.0717C174.618 44.8965 174.683 44.7474 174.813 44.6243C174.946 44.4988 175.104 44.4361 175.289 44.4361C175.474 44.4361 175.631 44.4988 175.761 44.6243C175.894 44.7474 175.96 44.8965 175.96 45.0717C175.96 45.2446 175.894 45.3937 175.761 45.5192C175.631 45.6423 175.474 45.7038 175.289 45.7038ZM181.33 47.8771L180.368 48.0476C180.328 47.9245 180.264 47.8073 180.176 47.696C180.091 47.5848 179.975 47.4936 179.828 47.4226C179.682 47.3516 179.498 47.3161 179.278 47.3161C178.977 47.3161 178.726 47.3835 178.525 47.5185C178.324 47.651 178.223 47.8227 178.223 48.0334C178.223 48.2157 178.291 48.3625 178.426 48.4737C178.561 48.585 178.778 48.6761 179.079 48.7472L179.945 48.946C180.447 49.062 180.821 49.2408 181.068 49.4822C181.314 49.7237 181.437 50.0374 181.437 50.4233C181.437 50.75 181.342 51.0412 181.153 51.2969C180.966 51.5502 180.704 51.7491 180.368 51.8935C180.034 52.0379 179.647 52.1101 179.207 52.1101C178.596 52.1101 178.098 51.9799 177.712 51.7195C177.326 51.4567 177.089 51.0838 177.002 50.6009L178.028 50.4446C178.092 50.7121 178.223 50.9145 178.422 51.0518C178.621 51.1868 178.88 51.2543 179.2 51.2543C179.548 51.2543 179.826 51.1821 180.034 51.0376C180.243 50.8909 180.347 50.7121 180.347 50.5014C180.347 50.331 180.283 50.1877 180.155 50.0717C180.03 49.9557 179.837 49.8681 179.576 49.8089L178.653 49.6065C178.144 49.4905 177.767 49.3059 177.524 49.0526C177.282 48.7992 177.161 48.4785 177.161 48.0902C177.161 47.7682 177.251 47.4865 177.431 47.245C177.611 47.0036 177.86 46.8153 178.177 46.6804C178.494 46.5431 178.858 46.4744 179.267 46.4744C179.857 46.4744 180.321 46.6023 180.659 46.858C180.998 47.1113 181.222 47.451 181.33 47.8771ZM185.151 46.5455V47.3977H182.171V46.5455H185.151ZM182.97 45.2386H184.032V50.3984C184.032 50.6044 184.063 50.7595 184.124 50.8636C184.186 50.9654 184.265 51.0353 184.362 51.0732C184.462 51.1087 184.569 51.1264 184.685 51.1264C184.771 51.1264 184.845 51.1205 184.909 51.1087C184.973 51.0968 185.023 51.0874 185.058 51.0803L185.25 51.9574C185.188 51.9811 185.101 52.0047 184.987 52.0284C184.874 52.0545 184.732 52.0687 184.561 52.071C184.282 52.0758 184.021 52.026 183.78 51.9219C183.538 51.8177 183.343 51.6567 183.194 51.4389C183.045 51.2211 182.97 50.9477 182.97 50.6186V45.2386Z" fill="#2FF093"/>
</svg>
