<svg width="106" height="106" viewBox="0 0 106 106" fill="none" xmlns="http://www.w3.org/2000/svg">
<g clip-path="url(#clip0_347_140)">
<path fill-rule="evenodd" clip-rule="evenodd" d="M63.9332 60.8227C65.8191 62.4033 68.1976 63.2423 71.1074 62.9902C80.1088 62.2098 84.8851 56.2429 86.9345 48.4441C89.9265 37.0564 87.0137 21.7178 83.2798 13.6353C83.1034 13.2523 82.6497 13.0866 82.2685 13.2633C81.8855 13.4397 81.718 13.8931 81.8944 14.2761C85.5189 22.1206 88.3618 37.0052 85.4588 48.0574C83.5769 55.2182 79.2427 60.7535 70.975 61.4692C68.5145 61.6839 66.5097 60.9691 64.9117 59.6368C65.7663 58.5791 66.5797 57.5112 67.3497 56.4346C69.4745 53.4621 73.4917 44.8312 74.0122 37.9959C74.3842 33.0925 72.9617 29.1169 68.2705 28.3044C65.6629 27.8534 63.4622 29.0923 61.7982 31.4328C59.5086 34.649 58.2439 40.0271 58.314 45.4375C58.3716 49.9421 59.3492 54.4606 61.3602 57.7649C61.8036 58.4902 62.2936 59.1601 62.835 59.7598C50.7046 74.2039 31.1767 86.0665 12.9673 89.0665C12.5527 89.1364 12.27 89.5274 12.3395 89.9439C12.4071 90.36 12.8004 90.6413 13.2146 90.5733C31.7208 87.5229 51.5666 75.4943 63.9332 60.8227ZM63.8199 58.5613C64.6208 57.5655 65.3843 56.5603 66.1082 55.5471C68.1434 52.698 71.9915 44.4298 72.4899 37.8806C72.7963 33.8615 71.8547 30.4735 68.0099 29.8074C65.9905 29.4587 64.331 30.5059 63.0405 32.3165C61.623 34.3098 60.6536 37.2002 60.1753 40.3934C59.4491 45.2413 59.8611 50.7871 61.6667 55.0164C62.2381 56.3565 62.9523 57.5623 63.8199 58.5613Z" fill="white"/>
<path fill-rule="evenodd" clip-rule="evenodd" d="M31.2582 67.2653C27.9853 75.7591 20.3546 83.9706 12.855 89.2119C12.5101 89.4529 12.4262 89.9289 12.6672 90.2739C12.9082 90.6188 13.3839 90.7045 13.7288 90.4635C21.4634 85.0593 29.3069 76.5704 32.6816 67.8144C32.8329 67.4226 32.6369 66.9806 32.2432 66.8289C31.8514 66.6775 31.4095 66.8735 31.2582 67.2653Z" fill="white"/>
<path fill-rule="evenodd" clip-rule="evenodd" d="M13.7945 90.6407C20.9863 88.2519 30.9854 89.7298 37.8249 93.0455C38.2042 93.2297 38.662 93.0722 38.8443 92.6925C39.0284 92.3132 38.8706 91.8574 38.4913 91.6732C31.3261 88.1997 20.8483 86.6904 13.3135 89.193C12.9139 89.3249 12.6972 89.7586 12.829 90.1581C12.9627 90.5581 13.3945 90.7744 13.7945 90.6407Z" fill="white"/>
</g>
<defs>
<clipPath id="clip0_347_140">
<rect width="89.729" height="89.729" fill="white" transform="translate(87.9727 105.641) rotate(-168.644)"/>
</clipPath>
</defs>
</svg>
